<?xml version="1.0" encoding="UTF-8"?> <svg xmlns="http://www.w3.org/2000/svg" id="Layer_1" data-name="Layer 1" width="191" height="229" viewBox="0 0 191 229"><defs><style> .cls-1 { stroke: #000; stroke-width: .59px; } .cls-2 { stroke: #231f20; stroke-miterlimit: 10; stroke-width: 2.26px; } .cls-2, .cls-3 { fill: #fff; } .cls-4, .cls-5, .cls-6, .cls-7, .cls-8, .cls-3 { stroke-width: 0px; } .cls-9 { stroke: #1c1a00; stroke-width: 1.76px; } .cls-9, .cls-8 { fill: #fff200; } .cls-5 { fill: #231f20; } .cls-6 { fill: #b5c2c9; } .cls-7 { fill: #6c757a; } </style></defs><rect class="cls-2" x="1.13" y="1.13" width="187.25" height="225.02"></rect><g><g><path class="cls-4" d="m59.82,196.05h7.15c3.72,0,5.34,2.92,5.34,6.34,0,4.67-2.64,5.41-3.78,5.69v.06c1.78.36,2.86.83,3.29,4.94.38,3.69.46,4.11.65,4.88h-4.72c-.14-1.07-.22-1.67-.33-3.63-.24-4.29-.73-4.76-2.92-4.79v8.42h-4.69v-21.9Zm5.82,10.12c1.73,0,1.97-1.52,1.97-3.19,0-2.71-.81-3.33-2.03-3.33h-1.08v6.52h1.14Z"></path><path class="cls-4" d="m74.56,196.05h4.07l4.27,9.82h.05v-9.82h3.91v21.9h-3.78l-4.55-12.17h-.06v12.17h-3.91v-21.9Z"></path><path class="cls-4" d="m92.58,196.05h5.16l4.78,21.9h-4.78l-.62-4.07h-3.7l-.48,4.07h-4.23l3.88-21.9Zm4.05,14.76l-1.54-10.38h-.05l-1.24,10.38h2.83Z"></path><path class="cls-4" d="m101.41,196.05h12.69v4.38h-4v17.52h-4.7v-17.52h-4v-4.38Z"></path><path class="cls-4" d="m115.69,196.05h4.69v21.9h-4.69v-21.9Z"></path><path class="cls-4" d="m135.77,207.62c0,7.2-1.24,10.74-6.67,10.74-5.12,0-6.85-2.82-6.85-10.11,0-2.77.27-7.53,1.64-9.76,1.51-2.44,3.67-2.71,5.13-2.71,5.82,0,6.74,5.56,6.74,11.84Zm-8.53,2.56c0,2.67.38,4.61,1.84,4.61,1.38,0,1.71-1.79,1.71-4.4v-6.7c0-3.98-1.03-4.22-1.81-4.28-.75.06-1.73.39-1.73,4.07v6.7Z"></path><path class="cls-4" d="m137.74,196.05h4.08l4.27,9.82h.05v-9.82h3.91v21.9h-3.78l-4.56-12.17h-.05v12.17h-3.91v-21.9Z"></path><path class="cls-4" d="m155.77,196.05h5.16l4.78,21.9h-4.78l-.63-4.07h-3.7l-.48,4.07h-4.24l3.89-21.9Zm4.05,14.76l-1.54-10.38h-.06l-1.24,10.38h2.83Z"></path><path class="cls-4" d="m167.64,196.05h4.7v17.52h5.42v4.37h-10.12v-21.9Z"></path><path class="cls-4" d="m68.71,159.7v7.13c.16-.03,1.28-.56,1.55-.93.41.67,4.06,1.04,5.04.62.36.16,2.11.83,2.21-.1-2.31-1.14-4.68-3.11-6.63-5.14-.49-.59-1.82-.92-2.17-1.58Z"></path><path class="cls-4" d="m53.05,8.89h2.88l3,6.28h.04v-6.28h2.76v14.01h-2.66l-3.22-7.78h-.04v7.78h-2.76v-14.01Z"></path><path class="cls-4" d="m89.27,8.89h4.38c2.19,0,3.14.99,3.62,1.75.67,1.08,1.27,3.01,1.27,5.8,0,3.98-1.16,6.45-4.72,6.45h-4.55v-14.01Zm4.28,11.38c.61,0,.99-.31,1.2-.82.29-.69.27-2.72.27-3.52,0-.9-.08-3.12-.37-3.65-.22-.5-.46-.76-1.1-.76h-.97v8.76h.97Z"></path><path class="cls-4" d="m110.68,8.89h3.31v14.01h-3.31v-14.01Z"></path><path class="cls-4" d="m126.9,8.89h7.51v2.8h-4.2v2.74h3.5v2.63h-3.5v3.04h4.76v2.8h-8.07v-14.01Z"></path><path class="cls-4" d="m152.81,21.81h-.03c-.27.44-.86,1.31-2.51,1.31-3.33,0-3.55-3.29-3.55-6.21,0-4.34.63-6.03,1.69-7.14.86-.89,1.9-1.08,3.08-1.08,3.96,0,4.08,2.63,4.02,5.25l-2.95.08c.04-.7.04-.88.04-1.05,0-.61,0-2-1.11-2-.18,0-.6.04-.89.47-.25.4-.36,1.07-.36,3.88v3.22c0,.67.02,1.94,1.27,1.94,1.16,0,1.31-1.2,1.31-1.69v-1.54h-1.46v-1.77h4.47v7.4h-3.01v-1.08Z"></path><path class="cls-4" d="m177.46,16.29c0,4.6-.88,6.87-4.7,6.87-3.62,0-4.83-1.81-4.83-6.47,0-1.77.19-4.81,1.16-6.24,1.07-1.56,2.59-1.73,3.62-1.73,4.11,0,4.76,3.56,4.76,7.58Zm-6.02,1.64c0,1.71.27,2.95,1.29,2.95.97,0,1.2-1.14,1.2-2.82v-4.28c0-2.55-.73-2.7-1.28-2.74-.54.04-1.22.25-1.22,2.61v4.28Z"></path><g><g><rect class="cls-5" x="11.48" y="26.75" width="166.59" height="166.59"></rect><rect class="cls-6" x="69.04" y="83.8" width="106.92" height="107.19"></rect></g><path class="cls-4" d="m11.48,196.05h4.7v21.9h-4.7v-21.9Z"></path><path class="cls-4" d="m18.44,196.05h4.08l4.26,9.82h.06v-9.82h3.91v21.9h-3.78l-4.56-12.17h-.05v12.17h-3.91v-21.9Z"></path><path class="cls-4" d="m32.18,196.05h12.68v4.38h-3.99v17.52h-4.7v-17.52h-4v-4.38Z"></path><path class="cls-4" d="m46.6,196.05h10.66v4.38h-5.96v4.28h4.96v4.11h-4.96v4.76h6.74v4.37h-11.44v-21.9Z"></path><g><path class="cls-9" d="m140.82,56.24c0,16-2.94,23.87-15.84,23.87-12.17,0-16.27-6.28-16.27-22.49,0-6.15.64-16.73,3.91-21.69,3.59-5.42,8.72-6.02,12.18-6.02,13.85,0,16.03,12.37,16.03,26.32Zm-20.25,5.85c0,6.07.9,10.46,4.36,10.46,3.27,0,4.04-4.05,4.04-9.99v-15.18c0-9.04-2.44-9.58-4.3-9.72-1.79.13-4.1.88-4.1,9.25v15.18Z"></path><path class="cls-9" d="m145.08,30.04h9.68l10.13,22.27h.13v-22.27h9.3v49.66h-8.98l-10.83-27.6h-.13v27.6h-9.3V30.04Z"></path><path class="cls-9" d="m72.82,58.47c0-13.56.83-29.1,16.73-29.1,4.81,0,13.53,1.85,13.53,13.43,0,1.66.42,2.87-.05,6.08h-9.94c.13-2.65-.07-3.24-.07-4.36,0-2.05,0-7.21-3.91-7.21-.9,0-2.18.46-3.01,1.78-1.41,2.25-1.41,9.79-1.41,12.83v9.59c0,4.9.58,9,4.42,9,4.17,0,5.16-4.94,5.16-10.16,0-1.19.24-2.34.11-4.45h9.67c.48,3.23.37,5.56.33,7.01-.27,7.91-2.5,10.65-4.04,12.57-3.28,2.71-5.45,4.17-11.28,4.17-2.83,0-7.76-.27-11.03-3.57-3.91-3.9-5.19-9.13-5.19-17.59Z"></path><g><path class="cls-9" d="m41.5,123.82c16.33,0,24.36,2.83,24.36,15.18,0,11.68-6.41,15.61-22.94,15.61-6.28,0-17.07-.61-22.14-3.75-5.53-3.44-6.14-8.36-6.14-11.68,0-13.27,12.61-15.36,26.85-15.36Zm5.8,19.76c6.07,0,10.45-.87,10.45-4.22,0-3.17-4.04-3.91-9.98-3.91h-15.18c-9.04,0-9.58,2.36-9.71,4.16.14,1.74.88,3.97,9.24,3.97h15.18Z"></path><path class="cls-9" d="m15.25,120.54v-13.06l27.19-5.67v-.12l-27.19-4.47v-13.29h49.66v8.88H28.71v.11l36.2,5.9v6.76l-36.24,5.96v.12h36.24v8.88H15.25Z"></path><path class="cls-9" d="m15.25,78.05v-11.12h49.66v11.12H15.25Z"></path><path class="cls-9" d="m44.69,61.82c-13.83,0-29.69-.83-29.69-16.57,0-4.76,1.89-13.39,13.7-13.39,1.69,0,2.93-.42,6.21.06v9.83c-2.7-.13-3.31.08-4.46.08-2.09,0-7.35,0-7.35,3.87,0,.89.48,2.16,1.83,2.98,2.29,1.4,9.98,1.4,13.09,1.4h9.78c5,0,9.18-.57,9.18-4.38,0-4.13-5.04-5.11-10.36-5.11-1.22,0-2.39-.23-4.55-.11v-9.57c3.29-.48,5.67-.37,7.16-.32,8.07.27,10.86,2.48,12.82,4,2.77,3.24,4.25,5.39,4.25,11.17,0,2.79-.27,7.68-3.64,10.92-3.98,3.87-9.31,5.14-17.95,5.14Z"></path><path class="cls-9" d="m44.69,189.13c-13.83,0-29.69-.83-29.69-16.57,0-4.76,1.89-13.39,13.7-13.39,1.69,0,2.93-.42,6.21.06v9.83c-2.7-.13-3.31.08-4.46.08-2.09,0-7.35,0-7.35,3.87,0,.89.48,2.16,1.83,2.98,2.29,1.4,9.98,1.4,13.09,1.4h9.78c5,0,9.18-.57,9.18-4.38,0-4.13-5.04-5.11-10.36-5.11-1.22,0-2.39-.23-4.55-.11v-9.57c3.29-.48,5.67-.37,7.16-.32,8.07.27,10.86,2.48,12.82,4,2.77,3.24,4.25,5.39,4.25,11.17,0,2.79-.27,7.68-3.64,10.92-3.98,3.87-9.31,5.14-17.95,5.14Z"></path></g></g><path class="cls-4" d="m18.84,11.97c0,.42-.08,1.01-.14,1.33l-2.7.06c.03-.46.05-.63.05-.76,0-.55-.14-1.56-1.07-1.56-.52,0-.99.38-.99,1.16,0,.97.51,1.41,2.07,2.17,1.89.91,3.53,1.94,3.53,4.45,0,2.25-1.28,4.34-4.59,4.34-1.54,0-4.28-.59-4.28-3.79,0-.21.01-.49.15-1.35l2.81-.06c-.07.69-.09.86-.09,1.03,0,.76.17,1.88,1.3,1.88.75,0,1.36-.57,1.36-1.58,0-1.31-.78-1.75-2.17-2.43-1.79-.88-3.29-1.68-3.29-3.98,0-1.6.74-2.76,1.73-3.41.97-.65,1.82-.7,2.6-.76,1.28.11,2.23.31,3.03,1.33.24.32.67.95.67,1.92Z"></path><path class="cls-4" d="m33.89,8.89h3.64l3.37,14.01h-3.37l-.43-2.61h-2.61l-.34,2.61h-2.99l2.74-14.01Zm2.86,9.44l-1.09-6.64h-.04l-.87,6.64h2Z"></path><g><path class="cls-8" d="m140.92,56.28c0,16-2.95,23.88-15.84,23.88-12.18,0-16.27-6.28-16.27-22.49,0-6.15.64-16.73,3.91-21.69,3.59-5.42,8.72-6.02,12.18-6.02,13.85,0,16.03,12.37,16.03,26.32Zm-20.25,5.85c0,6.07.89,10.46,4.36,10.46,3.27,0,4.04-4.05,4.04-9.99v-15.18c0-9.04-2.43-9.58-4.3-9.72-1.79.13-4.1.88-4.1,9.25v15.18Z"></path><path class="cls-8" d="m145.19,30.08h9.68l10.13,22.27h.13v-22.27h9.3v49.66h-8.98l-10.83-27.6h-.13v27.6h-9.29V30.08Z"></path><path class="cls-8" d="m72.92,58.51c0-13.56.84-29.1,16.73-29.1,4.81,0,13.53,1.85,13.53,13.43,0,1.65.42,2.87-.06,6.08h-9.93c.13-2.64-.07-3.24-.07-4.37,0-2.05,0-7.21-3.91-7.21-.9,0-2.18.46-3.02,1.79-1.41,2.25-1.41,9.79-1.41,12.83v9.59c0,4.89.58,9,4.42,9,4.17,0,5.16-4.94,5.16-10.16,0-1.19.24-2.34.1-4.45h9.67c.48,3.23.37,5.56.32,7.01-.26,7.91-2.5,10.65-4.04,12.57-3.27,2.71-5.44,4.17-11.28,4.17-2.82,0-7.75-.27-11.02-3.57-3.91-3.9-5.19-9.13-5.19-17.59Z"></path><g><path class="cls-8" d="m41.6,123.86c16.33,0,24.37,2.83,24.37,15.18,0,11.68-6.42,15.61-22.95,15.61-6.27,0-17.07-.61-22.13-3.75-5.53-3.44-6.14-8.36-6.14-11.68,0-13.27,12.62-15.36,26.85-15.36Zm5.81,19.76c6.07,0,10.45-.87,10.45-4.22,0-3.17-4.04-3.91-9.98-3.91h-15.18c-9.04,0-9.58,2.36-9.72,4.16.14,1.74.88,3.97,9.25,3.97h15.18Z"></path><path class="cls-8" d="m15.36,120.57v-13.06l27.19-5.67v-.12l-27.19-4.47v-13.29h49.66v8.88H28.82v.11l36.2,5.9v6.76l-36.23,5.96v.12h36.23v8.88H15.36Z"></path><path class="cls-8" d="m15.36,78.09v-11.13h49.66v11.13H15.36Z"></path><path class="cls-8" d="m44.79,61.86c-13.83,0-29.69-.82-29.69-16.56,0-4.76,1.88-13.39,13.7-13.39,1.69,0,2.93-.42,6.21.06v9.83c-2.7-.13-3.3.07-4.45.07-2.09,0-7.35,0-7.35,3.87,0,.89.48,2.16,1.82,2.98,2.29,1.4,9.98,1.4,13.09,1.4h9.78c5,0,9.18-.57,9.18-4.38,0-4.13-5.04-5.11-10.37-5.11-1.22,0-2.39-.23-4.55-.11v-9.57c3.29-.47,5.67-.37,7.15-.32,8.07.27,10.86,2.48,12.82,4,2.77,3.24,4.25,5.39,4.25,11.17,0,2.79-.27,7.68-3.64,10.92-3.98,3.87-9.31,5.14-17.95,5.14Z"></path><path class="cls-8" d="m44.79,189.17c-13.83,0-29.69-.82-29.69-16.57,0-4.76,1.88-13.39,13.7-13.39,1.69,0,2.93-.42,6.21.06v9.83c-2.7-.13-3.3.07-4.45.07-2.09,0-7.35,0-7.35,3.87,0,.89.48,2.16,1.82,2.98,2.29,1.4,9.98,1.4,13.09,1.4h9.78c5,0,9.18-.57,9.18-4.38,0-4.13-5.04-5.11-10.37-5.11-1.22,0-2.39-.23-4.55-.1v-9.57c3.29-.48,5.67-.37,7.15-.32,8.07.27,10.86,2.48,12.82,4,2.77,3.24,4.25,5.39,4.25,11.17,0,2.79-.27,7.68-3.64,10.92-3.98,3.87-9.31,5.14-17.95,5.14Z"></path></g></g></g><path class="cls-3" d="m68.18,155v5.86s3.13,5.66,20.69,9.56c17.57,3.9,39.21,1.77,56.4-15.42,3.52-3.51,5.45-13,5.25-12.61-.2.39-4.47-9.06-4.47-9.06l-6.63-1.17-29.66-.59s-14.64-1.56-41.77,22.84"></path><path class="cls-4" d="m151.04,136.16c0,.31-.87.93-1.03,1.09.16.42.36,1.61.26,2.02.67.52-.41,2.39.26,3.11-.52.47-.52-.31-.98-.42.26-1.5-.77-2.8-1.13-4.2-.72-1.87-2.32-3.17-4.06-4-1.13.05-2.26.05-3.18-.52-.31.26-.82-.05-1.03.41.31.31.37.73.52,1.09.27,2.08.08,5.01-.31,6.04.1.29-.68,2.49-1.28,3.56-2.26,4.77-6.78,10.69-12.69,10.22-1.54.26-3.55,0-5.09,0-.72-.52-1.74-.21-2.31-.98-.62.05-.88-.78-1.5-.62-.2-.47-.62-.78-1.13-.78-.82-.99-2.11-1.51-2.57-2.59-1.49-.47-1.54-1.92-2.62-2.85.16-1.25-1.13-1.82-1.08-3.01-.92-1.71-.82-4-.97-5.87-.67-.93.67-1.82.2-2.85.57-.41.16-1.3.62-1.76.15-.83-.82-.57-1.24-.99-3.7.99-8.17.88-11.45,3.37-3.75,2.81-8.02,4.31-11.57,7.58-5.69,3.44-11.65,8.8-16.96,12.72l39.88-37.44c.42-.27,1.45-1.56,2.27-1.32.36-.93,1.11-.18,1.26-1.36.46-.52.95.27,1.31-.76-.36-.78.67-.57.88-.62"></path><path class="cls-4" d="m176.32,121.96s-8.37,16.8-15.22,18.38c0,0-8.2-6.03-9.87-4.57-1.66,1.47-1.77.45-.88,2.64.88,2.19.2,4.1.2,4.1l-.78-.39s-.19-6.64-3.71-8.2c-3.51-1.56-5.72-.64-5.72-.64l-30.58-1.12s-9.86,1.08-12.49,3.51c-.68.63-1.62-1.4-30.06,21.27l1.75-28.1s49.77-36.5,62.06-40.21c12.3-3.71,28.32,9.98,31.24,11.04,4.25,1.54-2.41-5.82-7.28-7.87-3.71-1.56,14.69,4.05,22.3,11.08l-.96,19.07Z"></path><path class="cls-1" d="m84.52,168.77s35.46,11.99,59.67-13.28c3.36-3.51.4,1.02.4,1.02,0,0-10.7,13.86-28.94,16.98-21.41,3.66-29.28-2.34-31.18-3.66-1.9-1.32.05-1.06.05-1.06Z"></path><path class="cls-7" d="m111.23,128.4l-.59,1.17s35.57-5.6,50.95,7.38c0,0,3.7.82,13.95-15.72,1.03-1.66.54-16.83.54-16.83l-4.4-3.37s3.08.88,3.81,4.39c.73,3.51-29.67-13.47-62.02,20.3l1.26.34c3.22-.88,17.71-.58,22.69,0l-.29,1.17-25.91,1.17Z"></path><path class="cls-3" d="m129.92,132.27c1.18.57-.16,1.45.36,2.23-.56,1.4-1.64,2.91-3.09,3.63-1.13.57-2.11-.47-2.93-1.35-.67-.83-.77-1.87-.87-2.91.26-3.48,4.37-1.09,6.52-1.61Z"></path><path class="cls-3" d="m119.43,135.51c0-.26-.91-.17-1.14-.23-.46-.17-.29,0-.74.17-.4.12-.69.46-.86.87-.22.46-.46.92-.62,1.38-.12.4-.06.87-.06,1.27.06.17.23.34.29.52.18.63.35.58.46,1.21.57.12.92.58,1.26.17.12-.06.18-.17.18-.34.51,0,1.14.11,1.54-.06.35-.17.68-.4.91-.75.28-.34.11-.81.34-1.15.12-.06.22-.23.22-.29.18-.98.63-.81.29-1.67-.12-.23-.4-.87-.63-1.09-.29-.17-.46-.52-.68-.35-.12.06-.75.12-.75.35Z"></path><path class="cls-4" d="m72.16,173.17s8.48,13.27,38.14,13.27c18.95,0,.62,1.31.62,1.31,0,0-24.16,3.38-39.12-13.79-2.47-2.83.35-.8.35-.8Z"></path></g><path class="cls-5" d="m183.91,216.36c0,.62-.22,1.14-.65,1.58s-.96.65-1.57.65-1.14-.22-1.58-.65-.65-.96-.65-1.58.22-1.14.65-1.57c.44-.43.96-.66,1.58-.66s1.14.22,1.57.66c.43.43.65.96.65,1.57Zm-.49,0c0-.48-.17-.89-.51-1.23-.34-.35-.75-.52-1.22-.52s-.89.17-1.23.52c-.33.34-.5.75-.5,1.23s.17.89.5,1.23c.34.34.75.52,1.23.52s.88-.17,1.22-.52c.34-.34.51-.75.51-1.23Zm-.49,1.06h-.69l-.67-.81h-.22v.81h-.55v-2.22h.84c.16,0,.29.01.37.02.1.01.19.04.29.1.1.05.17.12.22.2.05.08.07.18.07.3,0,.16-.05.3-.14.4-.09.1-.21.18-.36.24l.84.95Zm-.94-1.56s-.01-.09-.03-.13c-.02-.04-.05-.07-.1-.09-.04-.03-.09-.04-.14-.05-.05,0-.12,0-.19,0h-.17v.62h.13c.09,0,.17,0,.23-.02.07-.01.12-.04.16-.07.04-.03.06-.07.09-.11.01-.04.03-.1.03-.16Z"></path></g></svg>
